<?xml version="1.0" standalone="no"?>
<!DOCTYPE svg PUBLIC "-//W3C//DTD SVG 20010904//EN"
 "http://www.w3.org/TR/2001/REC-SVG-20010904/DTD/svg10.dtd">
<svg version="1.0" xmlns="http://www.w3.org/2000/svg"
 width="700.000000pt" height="700.000000pt" viewBox="0 0 700.000000 700.000000"
 preserveAspectRatio="xMidYMid meet">
<metadata>
Created by potrace 1.14, written by Peter Selinger 2001-2017
</metadata>
<g transform="translate(0.000000,700.000000) scale(0.100000,-0.100000)"
fill="#000000" stroke="none">
<path d="M965 6635 c-290 -54 -523 -268 -595 -545 -19 -73 -20 -130 -20 -1958
0 -2101 -5 -1962 70 -2118 102 -211 294 -357 540 -409 46 -10 150 -14 359 -15
162 0 297 -3 300 -6 3 -3 6 -253 6 -557 1 -626 -4 -593 83 -648 41 -27 54 -30
103 -27 30 2 72 13 92 23 20 11 177 127 349 257 172 131 527 400 788 598 l475
360 1222 0 c1014 0 1234 2 1296 14 301 58 525 266 604 562 4 16 9 887 10 1935
3 1878 3 1907 -17 1985 -66 261 -264 459 -537 537 l-78 22 -2490 1 c-2002 2
-2504 -1 -2560 -11z m5033 -355 c115 -29 216 -110 268 -215 l29 -60 3 -1825
c2 -1354 0 -1844 -9 -1900 -25 -162 -120 -272 -277 -320 -61 -19 -100 -20
-1323 -20 -855 0 -1274 -4 -1303 -11 -30 -7 -116 -67 -311 -215 -149 -113
-277 -210 -285 -217 -8 -7 -112 -85 -230 -174 -118 -90 -295 -223 -392 -298
l-178 -134 0 42 c-1 23 -2 231 -3 463 l-2 420 -27 41 c-52 78 -40 77 -518 83
-323 5 -433 9 -460 20 -106 41 -204 134 -242 229 l-22 56 -1 1852 c-1 1991 -3
1909 50 1998 44 74 127 144 207 172 24 9 86 19 138 22 182 12 4840 3 4888 -9z"/>
<path d="M2298 5142 c-7 -29 -3 -2006 4 -2017 4 -7 80 -11 210 -10 l203 0 0
343 1 343 105 105 105 105 305 -432 c167 -238 308 -440 312 -449 7 -14 38 -16
283 -16 151 1 274 2 274 4 0 1 -28 40 -62 86 -35 46 -71 95 -80 108 -46 63
-508 694 -515 703 -4 6 -56 76 -115 157 l-107 147 414 414 c228 229 415 417
415 420 0 3 -122 5 -271 5 l-272 1 -36 -39 c-20 -21 -91 -96 -157 -167 -67
-70 -141 -148 -164 -173 -82 -87 -286 -304 -360 -382 l-75 -80 0 419 0 418
-206 2 c-188 2 -207 1 -211 -15z"/>
<path d="M4307 5152 c-2 -4 -3 -464 -3 -1022 l1 -1015 208 0 c115 0 211 4 214
8 3 6 7 1782 3 2007 l0 30 -210 0 c-115 -1 -211 -4 -213 -8z"/>
</g>
</svg>
